<?xml version="1.0" encoding="utf-8"?>
<!-- Generator: Adobe Illustrator 26.0.3, SVG Export Plug-In . SVG Version: 6.00 Build 0)  -->
<svg version="1.1" id="FEUILLES" xmlns="http://www.w3.org/2000/svg" xmlns:xlink="http://www.w3.org/1999/xlink" x="0px" y="0px"
	 viewBox="0 0 287.5 285.5" style="enable-background:new 0 0 287.5 285.5;" xml:space="preserve">
<style type="text/css">
	.st0{fill:#CCDBDE;}
	.st1{opacity:0.7;}
	.st2{fill:#305C66;}
	.st3{opacity:0.74;}
</style>
<g>
	<g>
		<g>
			<g>
				<path class="st0" d="M101.3,205.8c-2.2,4.5-4.5,8.9-6.9,13.3c-2.7,5-5.4,10-8.2,14.9c4,10.6,7.2,21.6,9.5,32.7l26.7-0.1
					C122.5,266.7,114.3,237.1,101.3,205.8z"/>
				<path class="st0" d="M83,226c0.8,2,1.6,4,2.4,6c5.2-9.1,10.2-18.4,14.8-27.9c0.1-0.1,0.1-0.2,0.2-0.3c-0.7-1.7-1.4-3.4-2.2-5.1
					c-5.4,8.9-10.4,17.9-15.2,27.1C83.1,225.9,83.1,226,83,226z"/>
				<path class="st0" d="M52.8,236.7c2.7,4.9,5.4,9.7,7.5,14.8c1.9,4.5,3.5,9.4,3.5,14.3c2.9-4.1,5.8-8.2,8.5-12.4
					c4.2-6.4,8.2-12.9,12-19.5c-5.6-14.7-12.7-28.9-21.2-42.2c-5.1-8-10.7-15.7-16.8-23h-0.1c-4.1,0.4-8.2,1-12.2,1.6
					c-3.2,0.5-6.4,1.1-9.5,1.8c0.9,2.8,2.1,5.5,3.6,7.8c11,16-4.1,10.1-12.6,14.3c-0.5,0.3-1.1,0.6-1.6,1
					c6.4,2.5,11.8,6.9,16.6,11.6C39.5,215.7,46.8,225.7,52.8,236.7z"/>
				<path class="st0" d="M88.2,244.9c-1-3-2-6-3.1-8.9c-6.2,10.6-12.8,20.9-19.9,30.8l28.8-0.1C92.4,259.4,90.5,252.1,88.2,244.9z"
					/>
				<path class="st0" d="M45.1,167.2c-6-7.1-12.5-13.9-19.4-20.2c-2.9,7.1-3.5,15.9-1.6,23.5C31,169.1,38,168,45.1,167.2z"/>
				<path class="st0" d="M38.8,134.4c-0.3,2.4,1.9,5,4.5,4.6c2.3-0.4,3.9-3,3.2-5.2c0-0.1,0-0.1,0-0.2c-2.8-0.3-5.3-0.1-7.7,0.6
					C38.8,134.2,38.8,134.3,38.8,134.4z"/>
				<path class="st0" d="M57.7,249.9c-2.2-4.8-4.8-9.4-7.3-14c-3-5.4-6.3-10.5-10.1-15.4c-3.7-4.8-7.8-9.3-12.2-13.5
					c-4.4-4.1-9.2-7.9-14.8-10.1c-0.3-0.1-0.5-0.4-0.6-0.6c-6,5.6-11.1,19.2,2.8,30.9c16,13.5,12.6,15.2,10.1,25.3
					c-2.5,10.1,1.5,14.5,1.5,14.5l35-0.1C62.4,260.9,60.2,255.1,57.7,249.9z"/>
				<path class="st0" d="M26.5,145.4c8.2,7.5,15.8,15.6,22.8,24.2c12.5,15.4,23,32.3,31.1,50.4c0.6,1.3,1.2,2.7,1.8,4
					c4.6-8.9,9.5-17.6,14.7-26.2c0.2-0.3,0.5-0.4,0.8-0.4c-13.3-30.2-30.8-59.7-49.4-63.5c0.6,3.1-1.6,6.4-4.8,6.8
					c-3.4,0.5-6.6-2.6-6.4-6C32.3,136.7,28.8,140.6,26.5,145.4C26.4,145.4,26.5,145.4,26.5,145.4z"/>
			</g>
			<g class="st1">
				<path class="st2" d="M77.6,267.2c0,0-12-18.1-24.9-34.3c-3.6,4.4-7.2,8.8-10.6,13.4c0,0,0,0,0,0.1c5.4,6.3,10.5,12.9,15.3,19.8
					c0.2,0.2,0.1,0.5,0,0.6L77.6,267.2z"/>
				<path class="st2" d="M41.4,245.6c3.4-4.6,7-9.1,10.6-13.5c-1.9-2.4-3.9-4.8-5.8-7c-3,5.6-5.8,11.3-7.4,17.5
					C39.7,243.6,40.5,244.6,41.4,245.6z"/>
				<path class="st2" d="M56.5,266.7c-2-2.8-4-5.6-6.2-8.4c-0.6-0.8-1.2-1.6-1.9-2.4h-0.1c-8.3,0-16.7-0.2-24.9,1.4
					c-0.7,0.1-1-0.9-0.3-1c8.1-1.6,16.3-1.5,24.4-1.5c-6-7.5-12.3-14.7-19.1-21.5c-0.1,0.8-0.5,1.4-1.2,1.9
					c-6.4,3.7-6.9-9.6-18.2-4.3c-11.2,5.4,21.9,35.3,21.9,35.3L56.5,266.7L56.5,266.7z"/>
				<path class="st2" d="M34.1,237.5c1.3,1.4,2.5,2.7,3.8,4.1c1.7-6.1,4.5-11.8,7.5-17.4c-8.4-9.6-16.4-16.8-20.8-15.8
					c-10.1,2.2,2.4,16.1,3.8,23.2C30.4,233.6,32.3,235.5,34.1,237.5z"/>
			</g>
		</g>
	</g>
	<g>
		<g>
			<g>
				<path class="st0" d="M181.5,207.8c2.2,4.5,4.5,8.9,6.9,13.3c2.7,5,5.4,10,8.2,14.9c-4,10.6-7.2,21.5-9.5,32.7l-26.7-0.1
					C160.4,268.7,168.6,239.1,181.5,207.8z"/>
				<path class="st0" d="M199.8,228c-0.8,2-1.6,4-2.4,6c-5.2-9.1-10.2-18.4-14.8-27.9c-0.1-0.1-0.1-0.2-0.2-0.3
					c0.7-1.7,1.4-3.4,2.2-5.1c5.4,8.9,10.4,17.9,15.2,27.1C199.8,227.9,199.8,227.9,199.8,228z"/>
				<path class="st0" d="M230.1,238.7c-2.7,4.9-5.4,9.7-7.6,14.8c-1.9,4.5-3.6,9.4-3.5,14.3c-2.9-4.1-5.8-8.2-8.5-12.4
					c-4.2-6.4-8.2-12.9-12-19.5c5.6-14.7,12.7-28.9,21.2-42.2c5.1-8,10.7-15.7,16.8-23h0.1c4.1,0.4,8.2,1,12.2,1.6
					c3.2,0.5,6.4,1.1,9.5,1.8c-0.9,2.8-2.1,5.5-3.6,7.8c-10.9,16,4.1,10.1,12.6,14.3c0.5,0.3,1.1,0.6,1.6,1
					c-6.4,2.5-11.8,6.9-16.6,11.6C243.4,217.7,236.1,227.7,230.1,238.7z"/>
				<path class="st0" d="M194.7,246.9c1-3,2-6,3.1-8.9c6.2,10.6,12.8,20.9,19.9,30.8l-28.8-0.1C190.4,261.4,192.4,254.1,194.7,246.9
					z"/>
				<path class="st0" d="M237.8,169.2c6-7.1,12.5-13.9,19.4-20.2c2.9,7.1,3.5,15.9,1.6,23.5C251.8,171.1,244.8,170,237.8,169.2z"/>
				<path class="st0" d="M244,136.4c0.3,2.4-1.9,5-4.5,4.6c-2.3-0.4-3.9-3-3.2-5.2c0-0.1,0-0.1,0-0.2c2.8-0.3,5.4-0.1,7.6,0.6
					C244,136.2,244,136.3,244,136.4z"/>
				<path class="st0" d="M225.1,251.9c2.2-4.8,4.8-9.4,7.4-14c3-5.4,6.3-10.5,10.1-15.4c3.7-4.8,7.8-9.3,12.2-13.5
					c4.4-4.1,9.2-7.9,14.8-10.1c0.3-0.1,0.5-0.4,0.5-0.6c6,5.6,11.1,19.2-2.8,30.9c-16,13.5-12.6,15.2-10.1,25.3
					c2.5,10.1-1.5,14.5-1.5,14.5l-35-0.1C220.4,262.9,222.7,257.1,225.1,251.9z"/>
				<path class="st0" d="M256.4,147.4c-8.2,7.5-15.8,15.6-22.8,24.2c-12.5,15.4-23,32.3-31.1,50.4c-0.6,1.3-1.2,2.7-1.8,4
					c-4.6-8.9-9.5-17.6-14.7-26.2c-0.2-0.3-0.5-0.4-0.8-0.4c13.3-30.2,30.8-59.7,49.4-63.5c-0.6,3.1,1.6,6.4,4.8,6.8
					c3.4,0.5,6.6-2.6,6.4-6C250.5,138.7,254.1,142.6,256.4,147.4L256.4,147.4z"/>
			</g>
			<g class="st3">
				<path class="st2" d="M201.8,269.2c0,0,0.1-27.6,39.9-34.3c3.6,4.4,7.2,8.8,10.6,13.4c0,0,0,0,0.1,0.1
					c-5.4,6.3-10.5,12.9-15.3,19.8c-0.2,0.2-0.1,0.5,0,0.6L201.8,269.2z"/>
				<path class="st2" d="M253,247.6c-3.4-4.6-7-9.1-10.6-13.5c1.9-2.4,3.9-4.8,5.8-7c3,5.6,5.8,11.3,7.4,17.5
					C254.7,245.6,253.8,246.6,253,247.6z"/>
				<path class="st2" d="M237.9,268.7c2-2.8,4.1-5.6,6.1-8.4c0.6-0.8,1.2-1.6,1.9-2.4h0.1c8.3,0,16.7-0.2,24.9,1.4
					c0.7,0.1,1-0.9,0.3-1c-8-1.5-16.3-1.5-24.4-1.5c5.9-7.5,12.3-14.7,19.1-21.5c0.1,0.8,0.5,1.4,1.2,1.9c6.4,3.7,7-9.6,18.2-4.3
					c11.2,5.4-21.9,35.3-21.9,35.3L237.9,268.7L237.9,268.7z"/>
				<path class="st2" d="M265.9,233.6c1.4-7.1,13.8-21.1,3.8-23.2c-4.4-0.9-12.3,6.2-20.8,15.8c3,5.6,5.8,11.3,7.5,17.4
					c1.2-1.4,2.5-2.8,3.8-4.1C262.1,237.5,264,235.5,265.9,233.6z"/>
			</g>
		</g>
	</g>
</g>
</svg>
