<?xml version="1.0" encoding="utf-8"?>
<!-- Generator: Adobe Illustrator 26.0.3, SVG Export Plug-In . SVG Version: 6.00 Build 0)  -->
<svg version="1.1" id="Calque_3" xmlns="http://www.w3.org/2000/svg" xmlns:xlink="http://www.w3.org/1999/xlink" x="0px" y="0px"
	 viewBox="0 0 77.03 77.03" style="enable-background:new 0 0 77.03 77.03;" xml:space="preserve">
<style type="text/css">
	.st0{fill:#597D85;}
</style>
<g id="XMLID_323_">
	<path id="XMLID_328_" class="st0" d="M53.45,77.03H23.58C10.58,77.03,0,66.45,0,53.45V23.58C0,10.58,10.58,0,23.58,0h29.86
		c13,0,23.58,10.58,23.58,23.58v29.86C77.03,66.45,66.45,77.03,53.45,77.03z M23.58,5.77c-9.82,0-17.82,7.99-17.82,17.82v29.86
		c0,9.82,7.99,17.82,17.82,17.82h29.86c9.82,0,17.82-7.99,17.82-17.82V23.58c0-9.82-7.99-17.82-17.82-17.82H23.58z"/>
	<path id="XMLID_325_" class="st0" d="M38.51,58c-10.74,0-19.48-8.74-19.48-19.48c0-10.74,8.74-19.48,19.48-19.48
		C49.26,19.03,58,27.77,58,38.51C58,49.26,49.26,58,38.51,58z M38.51,24.94c-7.49,0-13.58,6.09-13.58,13.58
		c0,7.49,6.09,13.58,13.58,13.58c7.49,0,13.58-6.09,13.58-13.58C52.09,31.03,46,24.94,38.51,24.94z"/>
	<path id="XMLID_324_" class="st0" d="M65.19,16.91c0,2.8-2.27,5.07-5.07,5.07c-2.8,0-5.07-2.27-5.07-5.07
		c0-2.8,2.27-5.07,5.07-5.07C62.92,11.84,65.19,14.11,65.19,16.91z"/>
</g>
</svg>
