<?xml version="1.0" encoding="utf-8"?>
<!-- Generator: Adobe Illustrator 26.0.3, SVG Export Plug-In . SVG Version: 6.00 Build 0)  -->
<svg version="1.1" id="Calque_3" xmlns="http://www.w3.org/2000/svg" xmlns:xlink="http://www.w3.org/1999/xlink" x="0px" y="0px"
	 viewBox="0 0 152.47 84.3" style="enable-background:new 0 0 152.47 84.3;" xml:space="preserve">
<style type="text/css">
	.st0{display:none;fill:none;stroke:#BFE3DA;stroke-width:0.5;stroke-miterlimit:10;}
	.st1{fill:#FF9B61;}
	.st2{fill:#AACAC2;}
	.st3{fill:#5F997F;}
	.st4{fill:none;stroke:#FFFFFF;stroke-width:0.2974;stroke-miterlimit:10;}
	.st5{fill:#FFFFFF;}
	.st6{fill:#BFE3DA;}
</style>
<path class="st0" d="M2.83-11.64C3.37-4.48,4.62,3.99,7.46,10.58c2.84,6.59,7.17,12.62,12.92,16.91c1.77,1.32,3.84,2.52,6.04,2.35
	c1.27-0.1,2.47-0.64,3.56-1.29c8.12-4.8,12.7-14.54,20.23-20.23"/>
<g>
	<polygon class="st1" points="135.68,76.59 150.64,76.65 150.64,66.51 137.18,65.1 	"/>
	<g>
		<polygon class="st2" points="137.79,61.9 136.67,76.82 22.67,76.73 36.65,41.57 		"/>
		<polygon class="st3" points="36.93,41.92 92.48,76.53 22.67,76.73 		"/>
		<line class="st4" x1="130.47" y1="60.41" x2="128.36" y2="76.82"/>
		<line class="st4" x1="129.29" y1="68.32" x2="31.18" y2="57.45"/>
	</g>
	<g>
		<polygon class="st1" points="72.91,61.9 75.58,76.83 97.74,77.23 86.27,68.92 84.49,61.3 		"/>
		<path class="st5" d="M74.32,77.32v-3.66l9.48,0.33l3.49-4.32c0,0,8.42-3.84,10.45,7.56L74.32,77.32z"/>
		<path class="st6" d="M10.16,52.55c1.44,1.03-3.21,25.36,14,24.18c24.92,0.59,37.97-42.48,37.97-42.48l9.49,30.07l16.92,0.45
			L78.45,13.83C76.34,3.32,63.82-1.19,55.48,5.55L10.16,52.55z"/>
		<path class="st4" d="M16.94,45.78c0,0-1.19,13.85,7.52,14.64c8.9,1.78,30.86-46.88,39.16-45.89c9.89,0.4,14.24,41.93,14.24,41.93"
			/>
		<line class="st4" x1="69.16" y1="56.46" x2="87.16" y2="56.46"/>
	</g>
</g>
</svg>
