<svg xmlns="http://www.w3.org/2000/svg" viewBox="0 0 799.99 570.15"><defs><style>.cls-1{isolation:isolate;}.cls-2,.cls-4,.cls-6{fill:#fc7d3d;}.cls-2,.cls-5{mix-blend-mode:multiply;}.cls-3{fill:#df5100;}.cls-5,.cls-7,.cls-9{fill:#fff;}.cls-6,.cls-7,.cls-8{mix-blend-mode:soft-light;}.cls-8{fill:#fff174;}</style></defs><g class="cls-1"><g id="Layer_1" data-name="Layer 1"><path class="cls-2" d="M800,471.71c-97.87,100.8-307.52,178.74-475.51-26.87C180.91,269.1,108.12,250,0,246.26V800H800Z" transform="translate(0 -229.84)"/><path class="cls-3" d="M800,373.16C565,244.59,511.43,474.87,346,563.1,225,627.61,77.21,592.67,0,477.53V800H800Z" transform="translate(0 -229.84)"/><path class="cls-2" d="M800,433.36c-131.47-90.66-269.42-65.05-385.46,38.35C278.79,592.67,54.36,548.32,0,319.85V800H800Z" transform="translate(0 -229.84)"/><path class="cls-4" d="M800,524.21C526.07,337.32,222.35,835.91,0,593.83v9.59c226.38,252.65,514-241.91,800-24.19Z" transform="translate(0 -229.84)"/><path class="cls-5" d="M447.22,545.88a284.44,284.44,0,0,0,31.12,13c78.07-31.5,157.89-50.33,238.06-24.3a357.1,357.1,0,0,0,47.67-30.94C660,454.68,552.42,494.15,447.22,545.88Z" transform="translate(0 -229.84)"/><path class="cls-5" d="M232.65,561.76C134,537.1,45.62,607.9,0,656.65V800H800V626.26C578.48,842.63,433.34,611.93,232.65,561.76Z" transform="translate(0 -229.84)"/><path class="cls-6" d="M0,665.63v15.94C226.08,806.25,486.29,497.2,668.52,575.16,497.56,477.47,225.14,800.61,0,665.63Z" transform="translate(0 -229.84)"/><path class="cls-7" d="M800,414.66c-118.47-85.85-227.1-72.15-391.73,44.51C169.94,628.06,76.76,396.91,71.92,321.6c3.61,127.64,118.26,302.15,342.61,150.56,198.89-134.39,336-53.75,385.46-21Z" transform="translate(0 -229.84)"/><path class="cls-8" d="M281.67,800H800V613.07C614.09,535.73,376.53,717.11,281.67,800Z" transform="translate(0 -229.84)"/><path class="cls-2" d="M800,651.12C651.73,799,488.44,719,395.71,657.17,554.29,794.25,720.94,758.86,800,676Z" transform="translate(0 -229.84)"/><path class="cls-9" d="M800,696.76c-60,61.29-172.15,84.42-303.17,39.62-201.54-68.91-303-22.54-364.51,18.21,58.08-32.08,166.14-80.35,362.34-8.67,128.63,47,243.59,28.6,305.34-32.49Z" transform="translate(0 -229.84)"/><path class="cls-2" d="M800,319.65c-157.59-63.79-237.74-18.32-286.7,21.7,46.36-31.62,132.07-79,286.7-11.64Z" transform="translate(0 -229.84)"/><path class="cls-2" d="M0,229.84C160.08,234,237.8,305.22,273.42,365.7,232.76,310.26,161.2,240,0,239.05Z" transform="translate(0 -229.84)"/></g></g></svg>