<?xml version="1.0" encoding="utf-8"?>
<!-- Generator: Adobe Illustrator 26.0.3, SVG Export Plug-In . SVG Version: 6.00 Build 0)  -->
<svg version="1.1" id="TELEPHONE" xmlns="http://www.w3.org/2000/svg" xmlns:xlink="http://www.w3.org/1999/xlink" x="0px" y="0px"
	 viewBox="0 0 287.5 285.5" style="enable-background:new 0 0 287.5 285.5;" xml:space="preserve">
<style type="text/css">
	.st0{fill:#305C66;}
	.st1{opacity:0.95;fill:#FFFFFF;enable-background:new    ;}
	.st2{fill:#FC7D3D;}
	.st3{opacity:0.2;fill:#FC7D3D;enable-background:new    ;}
	.st4{fill:#E6EBE9;}
	.st5{fill:none;stroke:#FC7D3D;stroke-width:1.8333;stroke-linecap:round;stroke-linejoin:round;stroke-miterlimit:10;}
	.st6{fill:none;stroke:#FFFFFF;stroke-width:0.779;stroke-linecap:round;stroke-miterlimit:10;}
	
		.st7{opacity:0.2;fill:none;stroke:#FC7D3D;stroke-width:2;stroke-linecap:round;stroke-linejoin:round;stroke-miterlimit:10;enable-background:new    ;}
	.st8{fill:none;stroke:#FC7D3D;stroke-width:2;stroke-linecap:round;stroke-linejoin:round;stroke-miterlimit:10;}
	.st9{fill:#DDE3EF;}
	.st10{fill:#000307;}
	.st11{fill:none;stroke:#000307;stroke-miterlimit:10;}
</style>
<g>
	<path class="st0" d="M192.8,269h-92.4c-15.2,0-27.6-12.3-27.6-27.6V32.5c0-15.2,12.3-27.6,27.6-27.6h92.4
		c15.2,0,27.6,12.3,27.6,27.6v208.9C220.3,256.6,208,269,192.8,269z"/>
	<path class="st1" d="M192.8,14.9h-92.4c-9.7,0-17.6,7.9-17.6,17.6v208.9c0,9.7,7.9,17.6,17.6,17.6h92.4c9.7,0,17.6-7.9,17.6-17.6
		V32.5C210.3,22.8,202.4,14.9,192.8,14.9z"/>
	<g>
		<circle class="st2" cx="145.4" cy="158.6" r="21.6"/>
		<g>
			<path class="st3" d="M172.6,163.8l6.7-4.4c0.5-0.3,0.5-1.1,0-1.4l-6.7-4.4c-0.6-0.4-1.3,0-1.3,0.7v8.9
				C171.3,163.8,172.1,164.2,172.6,163.8z"/>
			<path class="st3" d="M181.1,163.8l6.7-4.4c0.5-0.3,0.5-1.1,0-1.4l-6.7-4.4c-0.6-0.4-1.3,0-1.3,0.7v8.9
				C179.8,163.8,180.6,164.2,181.1,163.8z"/>
		</g>
		<g>
			<path class="st3" d="M118.6,163.8l-6.7-4.4c-0.5-0.3-0.5-1.1,0-1.4l6.7-4.4c0.6-0.4,1.3,0,1.3,0.7v8.9
				C119.9,163.8,119.1,164.2,118.6,163.8z"/>
			<path class="st3" d="M110.1,163.8l-6.7-4.4c-0.5-0.3-0.5-1.1,0-1.4l6.7-4.4c0.6-0.4,1.3,0,1.3,0.7v8.9
				C111.4,163.8,110.6,164.2,110.1,163.8z"/>
		</g>
	</g>
	<g>
		<g>
			<ellipse class="st4" cx="146.8" cy="82.3" rx="29.3" ry="29.3"/>
			<g>
				<path class="st5" d="M159.3,73.1v11c0,6.9-5.6,12.5-12.5,12.5l0,0c-6.9,0-12.5-5.6-12.5-12.5v-11"/>
				<path class="st2" d="M146.8,93.8L146.8,93.8c-5.4,0-9.8-4.4-9.8-9.8v-11c0-5.4,4.4-9.8,9.8-9.8l0,0c5.4,0,9.8,4.4,9.8,9.8v11
					C156.5,89.5,152.1,93.8,146.8,93.8z"/>
				<g>
					<line class="st6" x1="143.8" y1="69.8" x2="149.7" y2="69.8"/>
					<line class="st6" x1="143.8" y1="72.8" x2="149.7" y2="72.8"/>
					<line class="st6" x1="143.8" y1="75.8" x2="149.7" y2="75.8"/>
				</g>
				<line class="st5" x1="146.8" y1="96.8" x2="146.7" y2="101.1"/>
				<line class="st5" x1="152.8" y1="101.2" x2="141.2" y2="101.1"/>
			</g>
		</g>
		<g>
			<line class="st7" x1="103.5" y1="124.2" x2="190.7" y2="124.2"/>
			<line class="st8" x1="103.5" y1="124.2" x2="134.8" y2="124.2"/>
		</g>
	</g>
	<g>
		<ellipse class="st0" cx="163.3" cy="23.5" rx="3.8" ry="3.7"/>
		<path class="st0" d="M151,26.8h-18.1c-1.9,0-3.4-1.5-3.4-3.4l0,0c0-1.9,1.5-3.4,3.4-3.4H151c1.9,0,3.4,1.5,3.4,3.4l0,0
			C154.3,25.3,152.8,26.8,151,26.8z"/>
	</g>
</g>
<g>
	<g>
		<g>
			<g>
				<path class="st9" d="M212.5,103.6h41.9c8.5,0,15.5-6.9,15.5-15.5v-1c0-8.6-6.9-15.5-15.5-15.5h-41.9c-8.6,0-15.5,6.9-15.5,15.5
					v1v22.8L212.5,103.6z"/>
			</g>
			<circle class="st10" cx="196.5" cy="115.6" r="1.7"/>
		</g>
		<g>
			<g>
				<path class="st9" d="M99.1,66.5l-9.3-9.3H54.6c-7.2,0-12.9-5.8-12.9-12.9v-2.8c0-7.2,5.8-12.9,12.9-12.9h31.5
					c7.2,0,12.9,5.8,12.9,12.9L99.1,66.5L99.1,66.5z"/>
			</g>
			<circle class="st10" cx="99.5" cy="73.3" r="1.7"/>
		</g>
	</g>
	<g>
		<circle class="st11" cx="230.6" cy="118.8" r="4"/>
		<path class="st11" d="M57.3,121.5c0-2.6-2.1-4.7-4.7-4.7c-2.6,0-4.7,2.1-4.7,4.7c0,2.6,2.1,4.7,4.7,4.7
			C55.2,126.1,57.3,124.1,57.3,121.5z"/>
		<path class="st11" d="M70.3,19.7c0-1.5-1.2-2.7-2.7-2.7S65,18.3,65,19.7s1.2,2.7,2.7,2.7S70.3,21.2,70.3,19.7z"/>
		<path class="st11" d="M21.1,182.7c0-1.5-1.2-2.7-2.7-2.7s-2.7,1.2-2.7,2.7s1.2,2.7,2.7,2.7C19.9,185.3,21.1,184.1,21.1,182.7z"/>
		<path class="st11" d="M244.5,130.1c0-1.5-1.2-2.7-2.7-2.7s-2.7,1.2-2.7,2.7s1.2,2.7,2.7,2.7C243.3,132.8,244.5,131.6,244.5,130.1z
			"/>
	</g>
</g>
</svg>
